# xmcd CD database file
#
# Track frame offsets:
#	150
#	17891
#	38367
#
# Disc length: 820 seconds
#
# Revision: 0
# Processed by: cddbd v1.5.1PL0 Copyright (c) Steve Scherf et al.
# Submitted via: CDex 1.51
#
DISCID=16033203
DTITLE=太陽族 - 旅立ち
DYEAR=2005
DGENRE=Punk
TTITLE0=旅立ち
TTITLE1=チャイム
TTITLE2=誇り（弾き語り）
EXTD=YEAR: 2005-2/22
EXTT0=
EXTT1=
EXTT2=
PLAYORDER=
